<?xml version="1.0" encoding="UTF-8" standalone="no"?>
<!-- Created with Inkscape (http://www.inkscape.org/) -->

<svg
   version="1.1"
   id="svg2"
   width="2446.2134"
   height="1042.3199"
   viewBox="0 0 2446.2134 1042.3199"
   sodipodi:docname="logo_whilte.svg"
   inkscape:version="1.4 (e7c3feb1, 2024-10-09)"
   xmlns:inkscape="http://www.inkscape.org/namespaces/inkscape"
   xmlns:sodipodi="http://sodipodi.sourceforge.net/DTD/sodipodi-0.dtd"
   xmlns="http://www.w3.org/2000/svg"
   xmlns:svg="http://www.w3.org/2000/svg">
  <defs
     id="defs6">
    <clipPath
       clipPathUnits="userSpaceOnUse"
       id="clipPath18">
      <path
         d="M 0,781.74 H 1834.656 V 0 H 0 Z"
         id="path16" />
    </clipPath>
  </defs>
  <sodipodi:namedview
     id="namedview4"
     pagecolor="#ffffff"
     bordercolor="#000000"
     borderopacity="0.25"
     inkscape:showpageshadow="2"
     inkscape:pageopacity="0.0"
     inkscape:pagecheckerboard="0"
     inkscape:deskcolor="#d1d1d1"
     inkscape:zoom="0.30460152"
     inkscape:cx="599.14343"
     inkscape:cy="54.169132"
     inkscape:window-width="1920"
     inkscape:window-height="1080"
     inkscape:window-x="0"
     inkscape:window-y="0"
     inkscape:window-maximized="0"
     inkscape:current-layer="g12"
     showgrid="true">
    <inkscape:grid
       id="grid1"
       units="px"
       originx="0"
       originy="0"
       spacingx="1"
       spacingy="0.99999996"
       empcolor="#0099e5"
       empopacity="0.30196078"
       color="#0099e5"
       opacity="0.14901961"
       empspacing="5"
       enabled="true"
       visible="true" />
  </sodipodi:namedview>
  <g
     id="g8"
     inkscape:groupmode="layer"
     inkscape:label="source file"
     transform="matrix(1.3333333,0,0,-1.3333333,0,1042.32)">
    <g
       id="g12"
       style="display:inline">
      <g
         id="g14"
         clip-path="url(#clipPath18)"
         style="display:inline">
        <g
           id="g20"
           transform="matrix(0.77800648,0,0,0.72442262,446.61737,367.5241)">
          <path
             d="m 0,-2.1504236 c -1.782,6.014 -3.926,11.164 -6.402,15.4229996 -2.478,4.259 -6.097,8.407 -10.83,12.444 -4.733,3.981 -8.936,7.21 -12.611,9.549 -3.675,2.394 -8.881,4.899 -15.618,7.655 -6.737,2.728 -12.081,4.705 -15.979,6.041 -3.897,1.281 -9.632,3.146 -17.205,5.513 -18.485,5.678 -30.957,10.912 -37.471,15.784 -6.513,4.844 -9.77,11.191 -9.77,19.014 0,7.321 2.895,13.306004 8.713,17.928004 5.791,4.621 13.46639,9.9256 23.65639,9.9256 21.769,0 44.883207,-6.21022 54.821207,-27.507219 l 38.44220869,27.582129 c -8.51899999,17.539 -20.40399969,26.6944 -35.68899969,36.5214 -15.255,9.828 -37.474416,11.00769 -57.574416,11.00769 -22.494,0 -42.04261,-6.40127 -58.02261,-19.73527 -15.98,-13.391 -23.34378,-34.67633 -23.34378,-57.170334 0,-11.33 2.004,-21.296 6.041,-29.815 4.036,-8.519 9.882,-15.59 17.567,-21.158 7.711,-5.512 15.394,-9.966 23.078,-13.279 7.711,-3.313 17.12,-6.625 28.227,-9.938 20.129,-5.6799996 34.103,-10.9409996 41.899,-15.7849996 7.822,-4.872 11.719,-11.6640004 11.719,-20.4340004 0,-7.571 -3.201,-13.836 -9.576,-18.818 -6.404,-4.956 -16.453,-7.461 -30.176,-7.461 -28.425,0 -47.466,12.639 -57.182,38 l -41.898,-24.499 c 6.877,-18.958 18.708,-33.934 35.523,-44.903 16.786,-11.025 37.498,-16.509 62.136,-16.509 26.725,0 48.468,6.737 65.142,20.184 16.704,13.529 25.028,31.763 25.028,54.731 0,7.098 -0.892,13.6400004 -2.645,19.7090004"
             style="fill:#ffffff;fill-opacity:1;fill-rule:nonzero;stroke:none"
             id="path22"
             sodipodi:nodetypes="ccccccccscscccscscccccscscccscsc" />
        </g>
        <g
           id="g24"
           transform="translate(652.4559,387.5156)">
          <path
             d="m 0,0 c 0,-21.547 -6.125,-40.339 -18.374,-56.374 l -0.361,0.362 c -1.894,-2.533 -3.898,-4.926 -6.041,-7.238 l -25.557,40.896 c 3.48,6.681 5.429,14.309 5.429,22.354 0,11.163 -3.731,21.436 -10.051,29.676 -0.361,0.529 -0.751,1.002 -1.169,1.503 -0.473,0.613 -0.974,1.197 -1.53,1.754 -0.613,0.78 -1.281,1.476 -2.005,2.199 -8.017,8.046 -17.788,12.584 -29.258,13.614 -0.529,0.027 -1.086,0.111 -1.642,0.139 -1.114,0.055 -2.228,0.111 -3.37,0.111 -0.834,0 -1.697,-0.056 -2.532,-0.056 -4.816,-0.194 -9.299,-0.974 -13.502,-2.366 -1.058,-0.334 -2.061,-0.696 -3.063,-1.114 -1.336,-0.556 -2.672,-1.168 -3.953,-1.836 -0.584,-0.279 -1.168,-0.613 -1.753,-0.975 -1.559,-0.891 -3.091,-1.921 -4.566,-3.062 -0.584,-0.446 -1.169,-0.919 -1.726,-1.392 -1.141,-0.947 -2.255,-1.977 -3.313,-3.063 -2.115,-2.143 -4.009,-4.454 -5.623,-6.848 -0.112,-0.222 -0.25,-0.389 -0.362,-0.584 -5.429,-7.851 -8.602,-17.4 -8.602,-27.7 0,-7.851 1.837,-15.256 5.122,-21.798 l -25.389,-41.341 c -2.505,2.701 -4.816,5.596 -6.987,8.603 -10.997,15.339 -17.484,34.186 -17.484,54.536 0,49.274 38.112,89.725 86.468,93.482 0.807,0.056 1.642,0.084 2.449,0.14 0.141,0 0.279,0 0.419,0.027 1.336,0.056 2.7,0.084 4.064,0.084 h 0.333 c 1.588,0 3.147,-0.028 4.705,-0.111 0.836,-0.056 1.67,-0.14 2.507,-0.167 23.078,-1.559 42.871,-10.523 59.38,-26.892 C -9.104,48.467 0,26.252 0,0"
             style="fill:#ffffff;fill-opacity:1;fill-rule:nonzero;stroke:none"
             id="path26" />
        </g>
        <g
           id="g28"
           transform="translate(921.0999,461.3442)">
          <path
             d="m 0,0 c -12.193,13.251 -28.479,19.876 -48.829,19.876 -23.441,0 -41.063,-8.518 -52.894,-25.555 -10.411,17.037 -26.53,25.555 -48.3,25.555 -22.243,0 -38.696,-7.934 -49.358,-23.774 v 18.819 h -45.794 v -177.527 h 45.794 v 99.746 c 0,13.028 3.035,22.967 9.075,29.843 6.041,6.848 14.143,10.3 24.304,10.3 9.465,0 16.815,-2.978 22.019,-8.88 5.207,-5.93 7.823,-14.198 7.823,-24.86 v -106.149 h 45.795 v 99.746 c 0,13.028 2.896,22.967 8.686,29.843 5.818,6.848 13.92,10.3 24.331,10.3 9.465,0 16.815,-2.978 22.021,-8.88 5.206,-5.93 7.794,-14.198 7.794,-24.86 V -162.606 H 18.29 v 109.35 C 18.29,-31.013 12.193,-13.251 0,0"
             style="fill:#ffffff;fill-opacity:1;fill-rule:nonzero;stroke:none"
             id="path30" />
        </g>
        <g
           id="g32"
           transform="translate(1091.1952,351.4648)">
          <path
             d="m 0,0 c -9.355,-9.354 -21.976212,-10.861453 -36.173212,-10.861453 -14.197,0 -25.918,4.6769998 -35.133,14.0309998 C -80.547212,12.495547 -84.324,21.352 -84.324,36.023 c 0,14.671 4.622,26.697 13.863,36.051 9.215,9.326 20.936,14.003 35.133,14.003 C -21.131,86.077 -9.355,81.4 0,72.074 9.353,62.72 14.031,50.694 14.031,36.023 14.031,21.352 9.353,9.326 0,0 m 14.031,124.801 v -20.963 c -13.725,17.288 -33.018,25.918 -57.877,25.918 -23.663,0 -43.958,-9.048 -60.884,-27.171 -16.926,-18.095 -25.389,-40.282 -25.389,-66.562 0,-26.28 8.463,-48.467 25.389,-66.562 16.926,-18.123 36.375788,-24.001453 60.038788,-24.001453 24.859,0 44.15199952,8.63 57.877,25.918 v -20.935 L 59.825,-52.727 v 177.528 z"
             style="fill:#ffffff;fill-opacity:1;fill-rule:nonzero;stroke:none"
             id="path34"
             sodipodi:nodetypes="cscscscscccscscsccccc" />
        </g>
        <g
           id="g36"
           transform="translate(1285.4261,432.2246)">
          <path
             d="M 0,0 V 44.041 H -40.145 V 93.733 L -85.938,79.897 V 44.041 h -30.874 V 0 h 30.874 v -73.856 c 0,-24.387 6.458,-41.313 19.347,-50.778 12.917,-9.466 35.105,-12.416 66.591,-8.852 v 41.535 c -8.769,-0.474 -16.119,-0.529 -22.021,-0.195 -5.929,0.362 -10.411,1.976 -13.502,4.816 -3.062,2.84 -4.622,7.321 -4.622,13.474 V 0 Z"
             style="fill:#ffffff;fill-opacity:1;fill-rule:nonzero;stroke:none"
             id="path38" />
        </g>
        <g
           id="g40"
           transform="translate(1354.4657,545.5005)"
           style="display:inline">
          <path
             d="M -42.789,-246.762 H 3.034 v 177.527 h -45.823 z"
             style="display:inline;fill:#ffffff;fill-opacity:1;fill-rule:nonzero;stroke:none"
             id="path42"
             sodipodi:nodetypes="ccccc"
             clip-path="none" />
        </g>
        <path
           d="m 1525.061,227.722 h 45.824 v 45.488 h -45.824 z m -13.835,123.743 c -9.242,-9.355 -20.935,-14.031 -35.16,-14.031 -14.198,0 -25.974,4.676 -35.327,14.031 -9.355,9.326 -14.004,21.352 -14.004,36.023 0,14.671 4.649,26.697 14.004,36.051 9.353,9.326 21.129,14.003 35.327,14.003 14.225,0 25.918,-4.677 35.16,-14.003 9.242,-9.354 13.835,-21.38 13.835,-36.051 0,-14.671 -4.593,-26.697 -13.835,-36.023 m 13.835,124.801 v -20.963 c -13.474,17.288 -32.653,25.918 -57.514,25.918 -23.914,0 -44.319,-9.048 -61.245,-27.171 -16.927,-18.095 -25.39,-40.282 -25.39,-66.562 0,-26.28 8.463,-48.467 25.39,-66.562 16.926,-18.123 37.331,-27.171 61.245,-27.171 24.861,0 44.04,8.63 57.514,25.918 v -30.428 h 45.824 v 187.021 z"
           style="fill:#ffffff;fill-opacity:1;fill-rule:nonzero;stroke:none"
           id="path44" />
        <g
           id="g46"
           transform="translate(627.2064,298.7383)">
          <path
             d="m 0,0 h -137.329 l 53.45,87.051 h 5.568 l 18.402,-0.028 h 5.568 z"
             style="fill:#ffffff;fill-opacity:1;fill-rule:nonzero;stroke:none"
             id="path48" />
        </g>
        <path
           d="m 1570.551,227.722 h -45.49 v 45.488 h 45.49 z"
           style="fill:#ffffff;fill-opacity:1;fill-rule:nonzero;stroke:none"
           id="path50" />
        <path
           d="m 1357.5514,490.89873 -45.4899,-0.25865 -0.1294,45.74665 45.6193,0.12933 z"
           style="fill:#ffffff;fill-opacity:1;fill-rule:nonzero;stroke:none"
           id="path50-1"
           sodipodi:nodetypes="ccccc" />
      </g>
    </g>
  </g>
</svg>
